<!-- Generated by IcoMoon.io -->
<svg version="1.1" xmlns="http://www.w3.org/2000/svg" width="32" height="32" viewBox="0 0 32 32">
<path d="M29.2 6.107l-16.58 16.58-6.209-6.141 2.115-2.047 4.094 4.094 14.533-14.533zM14.667 27.667q-2.388 0-4.503-0.921t-3.719-2.525-2.525-3.719-0.921-4.503 0.921-4.503 2.525-3.719 3.719-2.525 4.503-0.921q1.706 0 3.275 0.478t2.934 1.365l2.115-2.115q-1.774-1.228-3.889-1.91t-4.435-0.682q-3.002 0-5.629 1.126t-4.64 3.139-3.139 4.64-1.126 5.629 1.126 5.629 3.139 4.64 4.64 3.139 5.629 1.126q1.91 0 3.65-0.444t3.309-1.331l-2.183-2.183q-1.092 0.546-2.286 0.819t-2.49 0.273zM24.833 20.367h-4.367v2.934h4.367v4.367h2.934v-4.367h4.367v-2.934h-4.367v-4.367h-2.934v4.367z"></path>
</svg>
